<?xml version="1.0" encoding="UTF-8"?>
<svg id="Layer_1" data-name="Layer 1" xmlns="http://www.w3.org/2000/svg" viewBox="0 0 1225.36 195.92">
  <defs>
    <style>
      .cls-1 {
        fill: #fff;
      }
    </style>
  </defs>
  <g>
    <polygon class="cls-1" points="159.53 71.44 159.53 86.88 185.7 86.88 185.7 96.38 159.53 96.38 159.53 119.54 149.05 119.54 149.05 61.93 188.87 61.93 188.87 71.44 159.53 71.44"/>
    <path class="cls-1" d="M217.23,100.77l-10.72.81c-1.57.11-2.98.63-4.23,1.54-1.25.92-1.87,2.25-1.87,3.98,0,1.63.61,2.92,1.83,3.86,1.22.95,2.61,1.42,4.19,1.42,3.2,0,5.8-.83,7.8-2.48,2.01-1.65,3.01-4.05,3.01-7.19v-1.95ZM230.8,119.06c-.87.38-1.61.66-2.23.85-.62.19-1.56.28-2.81.28-2.22,0-3.93-.6-5.12-1.79-1.19-1.19-1.87-2.57-2.03-4.14-.98,1.73-2.6,3.22-4.88,4.47-2.27,1.25-4.93,1.87-7.96,1.87-2.55,0-4.77-.37-6.67-1.1-1.9-.73-3.48-1.71-4.75-2.92-1.27-1.22-2.23-2.63-2.89-4.23-.65-1.6-.97-3.26-.97-5,0-2.01.37-3.79,1.1-5.36.73-1.57,1.75-2.93,3.05-4.06,1.3-1.14,2.81-2.02,4.55-2.64,1.73-.62,3.6-1.02,5.61-1.18l12.43-.89v-2.6c0-2-.47-3.61-1.42-4.83-.95-1.22-2.86-1.83-5.73-1.83-2.39,0-4.24.51-5.57,1.54-1.33,1.03-2.05,2.52-2.16,4.47h-9.83c.16-2.38.72-4.44,1.67-6.18.95-1.74,2.21-3.16,3.78-4.27,1.57-1.11,3.39-1.93,5.45-2.48,2.06-.54,4.28-.81,6.66-.81,3.63,0,6.87.64,9.71,1.91,2.84,1.27,4.89,3.51,6.14,6.7.54,1.35.88,2.76,1.02,4.23.13,1.46.2,2.9.2,4.31v15.68c0,.98.18,1.67.53,2.07.35.4.96.61,1.83.61.43,0,.73-.03.9-.08.16,0,.29-.03.4-.08v7.48Z"/>
    <path class="cls-1" d="M286.22,119.54v-26.25c0-2.6-.45-4.62-1.34-6.05-.9-1.44-2.61-2.16-5.16-2.16-1.46,0-2.71.34-3.74,1.02-1.03.68-1.88,1.57-2.56,2.68-.68,1.11-1.18,2.34-1.51,3.7-.32,1.35-.49,2.68-.49,3.98v23.08h-10.08v-26.25c0-2.6-.45-4.62-1.34-6.05-.89-1.44-2.61-2.16-5.16-2.16-1.46,0-2.71.34-3.74,1.02-1.03.68-1.9,1.57-2.6,2.68-.71,1.11-1.22,2.34-1.54,3.7-.33,1.35-.49,2.68-.49,3.98v23.08h-10.08v-42.26h8.45l.81,5.61c1.19-1.95,2.79-3.55,4.79-4.79,2-1.25,4.42-1.87,7.23-1.87,2.98,0,5.47.61,7.47,1.83,2,1.22,3.55,2.91,4.63,5.08,1.25-2.22,2.97-3.92,5.16-5.12,2.2-1.19,4.73-1.79,7.6-1.79,4.55,0,7.98,1.37,10.28,4.1,2.3,2.74,3.45,6.3,3.45,10.69v28.52h-10.08Z"/>
    <path class="cls-1" d="M303.61,77.29h10.32v42.26h-10.32v-42.26ZM303.29,60.95h10.89v10.48h-10.89v-10.48Z"/>
    <path class="cls-1" d="M339.21,119.46c-1.03.22-1.78.37-2.24.45-.46.08-1.2.12-2.23.12-3.47,0-6.26-.89-8.37-2.68-2.11-1.79-3.17-4.69-3.17-8.7v-47.87h10.24v46.16c0,1.25.24,2.23.73,2.96.49.73,1.6,1.1,3.33,1.1.43,0,.76-.01.98-.04.22-.03.46-.04.73-.04v8.53Z"/>
    <path class="cls-1" d="M365.29,126.78c-.54,1.41-1.18,2.75-1.91,4.02-.73,1.27-1.61,2.4-2.64,3.37-1.03.97-2.23,1.75-3.62,2.31-1.38.57-2.99.85-4.83.85-1.68,0-3.13-.11-4.35-.32-1.22-.22-2.37-.46-3.46-.73v-8.45c.65.11,1.2.22,1.67.33.46.11.89.19,1.3.24.41.05.81.1,1.22.12.41.03.91.04,1.5.04.92,0,1.83-.22,2.72-.65.89-.44,1.61-1.28,2.15-2.52l2.44-5.93-16.66-42.18h11.13l11.05,30.55,10.56-30.55h10.32l-18.61,49.49Z"/>
    <polygon class="cls-1" points="390.64 119.54 390.64 61.93 401.13 61.93 401.13 109.63 427.86 109.63 427.86 119.54 390.64 119.54"/>
    <path class="cls-1" d="M433.06,77.29h10.32v42.26h-10.32v-42.26ZM432.74,60.95h10.89v10.48h-10.89v-10.48Z"/>
    <path class="cls-1" d="M480.6,68.92c-1.08-.22-2.13-.38-3.13-.49-1-.11-2.18-.16-3.53-.16-1.84,0-3.22.48-4.14,1.42-.92.95-1.38,2.18-1.38,3.7v3.9h11.3v8.37h-11.3v33.89h-10.16v-33.89h-7.15v-8.37h7.15v-4.06c0-3.9,1.26-7.09,3.78-9.59,2.52-2.49,6.05-3.74,10.61-3.74,1.46,0,2.76.07,3.9.2,1.14.14,2.49.37,4.06.69v8.12Z"/>
    <path class="cls-1" d="M510.51,94.19c-.05-3.09-.92-5.55-2.6-7.39-.7-.76-1.58-1.35-2.64-1.79-1.05-.43-2.32-.65-3.78-.65-1.57,0-2.96.3-4.14.9-1.19.6-2.17,1.38-2.93,2.36-.76.92-1.3,1.9-1.63,2.92-.32,1.03-.51,2.25-.56,3.66h18.28ZM520.67,98.74c-.05.38-.08.73-.08,1.05v1.79h-28.28c0,1.63.26,3.17.77,4.63.51,1.46,1.28,2.68,2.31,3.66.76.7,1.64,1.31,2.64,1.83,1,.52,2.2.77,3.62.77s2.67-.15,3.61-.45c.95-.3,1.8-.82,2.56-1.58.97-.98,1.65-2.17,2.03-3.58h9.75c-.11,1.25-.53,2.61-1.26,4.1-.73,1.49-1.5,2.72-2.32,3.7-1.79,2.11-3.93,3.63-6.42,4.55-2.49.92-5.09,1.38-7.8,1.38-2.92,0-5.46-.48-7.6-1.42-2.14-.94-4.05-2.2-5.73-3.78-2.11-2.06-3.73-4.52-4.84-7.4-1.11-2.87-1.67-6.04-1.67-9.51s.5-6.57,1.5-9.47c1-2.9,2.53-5.38,4.59-7.44,1.57-1.63,3.48-2.93,5.73-3.9,2.25-.98,4.84-1.46,7.76-1.46,3.14,0,6.07.64,8.78,1.91,2.71,1.27,4.93,3.24,6.66,5.89,1.57,2.33,2.57,4.7,3.01,7.11.43,2.41.65,4.94.65,7.6"/>
    <path class="cls-1" d="M99.05,109.74h-17.65v-21.18c0-4.9-1.91-9.5-5.37-12.97l-13.35-13.35,8.59-8.59,25.4,26.86c1.54,1.54,2.39,3.59,2.39,5.78v23.45ZM59.14,65.77l.03-.03s-.02.02-.03.03M103.85,73.31l-32.59-34.05-37.93,37.94,7.2,7.19,14.95-14.95,13.35,13.35c1.54,1.54,2.4,3.6,2.4,5.78v21.18h-34.3v10.17h72.3v-33.63c0-4.9-1.91-9.51-5.37-12.97"/>
    <path class="cls-1" d="M530.67,121.11c-3.01,0-5.24-2.35-5.24-5.33s2.24-5.34,5.24-5.34,5.25,2.35,5.25,5.33-2.24,5.35-5.25,5.35M530.67,111.36c-2.57,0-4.27,1.87-4.27,4.41s1.7,4.4,4.27,4.4,4.27-1.88,4.27-4.42-1.7-4.4-4.27-4.4M531.85,118.47l-.93-2.05h-1.09v2.05h-.97v-5.56h2.05c1.06,0,1.98.61,1.98,1.74,0,.73-.32,1.31-1,1.61l1.03,2.21h-1.06ZM530.9,113.8h-1.09v1.71h1.09c.58,0,.96-.26.96-.87,0-.57-.43-.84-.96-.84"/>
  </g>
  <rect class="cls-1" x="582.75" y="32.22" width="5.59" height="121.36"/>
  <g>
    <path class="cls-1" d="M828.23,46.72h7.59l6.42,11.75,6.42-11.75h7.34l-10.49,17.79v11.96h-6.88v-11.92l-10.41-17.83Z"/>
    <path class="cls-1" d="M885.31,46.72v6.08h-14.18v5.66h12.38v5.79h-12.38v6.13h14.18v6.08h-20.98v-29.75h20.98Z"/>
    <path class="cls-1" d="M902.99,46.72h8.43l10.45,29.75h-7.26l-1.93-6h-11.25l-1.93,6h-6.92l10.41-29.75ZM910.88,64.77l-3.82-11.96-3.82,11.96h7.64Z"/>
    <path class="cls-1" d="M943.07,46.72c7.76,0,10.99,4.49,10.99,9.65,0,3.69-2.01,7.01-5.66,8.31l5.71,11.79h-7.51l-4.78-10.45h-4.66v10.45h-6.88v-29.75h12.8ZM947.02,56.37c0-2.18-1.3-3.86-4.49-3.86h-5.41v7.72h5.41c3.19,0,4.49-1.68,4.49-3.86Z"/>
    <path class="cls-1" d="M962.68,66.95h6.88c.21,2.89,2.27,4.45,5.71,4.45s5.16-1.59,5.16-3.52c0-1.38-1.05-2.6-3.52-2.94l-4.28-.55c-5.54-.71-9.31-3.48-9.31-8.81,0-5.04,4.61-9.48,11.83-9.48s11.62,3.99,11.92,9.52h-6.92c-.04-2.27-1.72-3.9-5.04-3.9s-4.99,1.6-4.99,3.36c0,1.59,1.17,2.6,3.48,2.89l3.86.5c5.5.71,9.82,3.32,9.82,8.9,0,6-5.33,9.74-12.21,9.74s-12.21-4.11-12.38-10.15Z"/>
    <path class="cls-1" d="M1014.56,73.45c-3.15-3.06-4.2-7.09-4.2-11.83s1.05-8.81,4.2-11.88c2.43-2.39,5.96-3.61,9.48-3.61s7.05,1.22,9.48,3.61c3.15,3.06,4.2,7.13,4.2,11.88s-1.05,8.77-4.2,11.83c-2.43,2.39-5.96,3.61-9.48,3.61s-7.05-1.22-9.48-3.61ZM1028.45,69.34c1.8-1.8,2.35-4.28,2.35-7.72s-.55-5.96-2.35-7.76c-1.01-1.01-2.52-1.59-4.4-1.59s-3.4.59-4.41,1.59c-1.8,1.8-2.35,4.32-2.35,7.76s.55,5.92,2.35,7.72c1.01,1.01,2.52,1.6,4.41,1.6s3.4-.59,4.4-1.6Z"/>
    <path class="cls-1" d="M1068.78,46.72v5.92h-13.64v6.46h12v5.88h-12v11.5h-6.88v-29.75h20.52Z"/>
  </g>
  <g>
    <path class="cls-1" d="M852.4,103.52v5.92h-13.64v6.46h12v5.88h-12v11.5h-6.88v-29.75h20.52Z"/>
    <path class="cls-1" d="M869.41,103.52v23.54h13.17v6.21h-20.06v-29.75h6.88Z"/>
    <path class="cls-1" d="M893.88,130.25c-3.15-3.06-4.2-7.09-4.2-11.83s1.05-8.81,4.2-11.88c2.43-2.39,5.96-3.61,9.48-3.61s7.05,1.22,9.48,3.61c3.15,3.06,4.2,7.13,4.2,11.88s-1.05,8.77-4.2,11.83c-2.43,2.39-5.96,3.61-9.48,3.61s-7.05-1.22-9.48-3.61ZM907.77,126.14c1.8-1.8,2.35-4.28,2.35-7.72s-.55-5.96-2.35-7.76c-1.01-1.01-2.52-1.59-4.4-1.59s-3.4.59-4.41,1.59c-1.8,1.8-2.35,4.32-2.35,7.76s.54,5.92,2.35,7.72c1.01,1.01,2.52,1.6,4.41,1.6s3.4-.59,4.4-1.6Z"/>
    <path class="cls-1" d="M927.29,122.78v-19.26h6.88v18.84c0,3.44,1.85,5.37,5.25,5.37s5.25-1.93,5.25-5.37v-18.84h6.88v19.26c0,6.59-4.28,11.08-12.13,11.08s-12.13-4.49-12.13-11.08Z"/>
    <path class="cls-1" d="M976.02,103.52c7.76,0,10.99,4.49,10.99,9.65,0,3.69-2.01,7.01-5.66,8.31l5.71,11.79h-7.51l-4.78-10.45h-4.66v10.45h-6.88v-29.75h12.8ZM979.97,113.17c0-2.18-1.3-3.86-4.49-3.86h-5.41v7.72h5.41c3.19,0,4.49-1.68,4.49-3.86Z"/>
    <path class="cls-1" d="M1004.53,103.52v29.75h-6.92v-29.75h6.92Z"/>
    <path class="cls-1" d="M1014.56,123.75h6.88c.21,2.89,2.27,4.45,5.71,4.45s5.16-1.59,5.16-3.52c0-1.38-1.05-2.6-3.52-2.94l-4.28-.55c-5.54-.71-9.31-3.48-9.31-8.81,0-5.04,4.61-9.48,11.83-9.48s11.62,3.99,11.92,9.52h-6.92c-.04-2.27-1.72-3.9-5.04-3.9s-4.99,1.6-4.99,3.36c0,1.59,1.17,2.6,3.48,2.89l3.86.5c5.5.71,9.82,3.32,9.82,8.9,0,6-5.33,9.74-12.21,9.74s-12.21-4.11-12.38-10.15Z"/>
    <path class="cls-1" d="M1056.32,103.52v11.46h10.36v-11.46h6.88v29.75h-6.88v-12.17h-10.36v12.17h-6.88v-29.75h6.88Z"/>
    <path class="cls-1" d="M1092.51,103.52v29.75h-6.92v-29.75h6.92Z"/>
    <path class="cls-1" d="M1129.9,103.52v29.75h-7.8l-10.87-20.23v20.23h-6.71v-29.75h8.43l10.24,19.05v-19.05h6.71Z"/>
    <path class="cls-1" d="M1144.39,130.38c-3.02-3.15-3.94-7.22-3.94-11.96s1.05-8.85,4.24-11.92c2.43-2.35,5.87-3.57,9.4-3.57,4.74,0,7.76,1.47,10.03,3.69,1.47,1.43,2.85,3.94,3.02,6.84h-7.34c-.08-1.09-.46-2.31-1.51-3.23-.84-.76-2.1-1.34-3.99-1.34-2.1,0-3.52.63-4.57,1.68-1.85,1.85-2.35,4.41-2.35,7.85s.67,6.17,2.52,7.97c1.13,1.09,2.52,1.64,4.53,1.64,3.74,0,6-2.27,6.04-5.5v-.08h-6.92v-5.25h13.6v16.07h-5.16l-.33-3.94c-.8,2.18-3.65,4.53-8.14,4.53-3.69,0-6.76-1.01-9.11-3.48Z"/>
  </g>
  <path class="cls-1" d="M674.57,91.36c0-14.65,5.47-28.65,15.41-39.47h24.69c-14.87,6.92-25.21,22.01-25.21,39.47,0,10.64,3.88,20.86,10.95,28.83-2.64,4.32-6.72,7.62-11.57,9.35-9.2-10.62-14.26-24.16-14.26-38.18ZM670.78,84.47c.63-5.73,2.03-11.31,4.19-16.61-3.05.48-6.03,1.29-8.88,2.43l-3.48,1.39,3.97-24.01h48.31v-14.89h-60.71l-9.61,56.77,14.5,4.98c2.83-4.47,6.86-7.93,11.71-10.06ZM722.74,108.68c0-15.88-9.23-30.45-23.58-37.31-2.6,4.37-4.29,9.12-5.04,14.14,8.49,4.67,13.73,13.49,13.73,23.16,0,14.61-11.66,26.23-26.55,26.44-12.39.14-22.4-7.54-25.41-19.51-.4-1.59-.67-3.26-.82-4.96l-14.9.29c.18,2.84.61,5.63,1.28,8.31,4.63,18.41,20.48,30.77,39.42,30.77h.65c22.72-.33,41.21-18.87,41.21-41.33ZM753.9,53.24l10.83-10.85c-9.15-5.96-20.06-9.42-31.77-9.42-4.67,0-9.33.56-13.84,1.66v15.48c4.35-1.46,9.01-2.26,13.84-2.26,7.59,0,14.72,1.96,20.94,5.38ZM753.46,129.72c-6.11,3.28-13.09,5.14-20.5,5.14-4.46,0-8.88-.69-13.13-2.04-2.91,4.56-6.54,8.52-10.79,11.79,7.55,3.41,15.59,5.13,23.92,5.13,17.53,0,33.27-7.76,43.98-20.03h-23.49ZM804.36,91.59v31.28h-67.25v-9.46h31.9v-19.7c0-2.03-.79-3.94-2.23-5.37l-12.42-12.42-13.91,13.91-6.69-6.69,35.28-35.29,30.32,31.67c3.22,3.22,5,7.51,5,12.06ZM794.9,91.59c0-2.03-.79-3.94-2.23-5.37l-23.62-24.98-7.99,7.99,12.42,12.42c3.23,3.23,5,7.51,5,12.06v19.7h16.42v-21.82Z"/>
</svg>